<svg xmlns="http://www.w3.org/2000/svg" width="26" height="26" viewBox="0 0 26 26" fill="none"><path d="M6.53046 6.79563L7.09508 4.96865C7.20924 4.59927 7.4387 4.27616 7.74985 4.04666C8.06099 3.81717 8.43745 3.69335 8.82408 3.69336H15.9945C16.3811 3.69335 16.7576 3.81717 17.0687 4.04666C17.3798 4.27616 17.6093 4.59927 17.7235 4.96865L18.2881 6.79563H19.9064C21.477 6.79563 22.7502 8.06886 22.7502 9.63938V19.9803C22.7502 21.5508 21.477 22.824 19.9064 22.824H4.91211C3.34158 22.824 2.06836 21.5508 2.06836 19.9803V9.63938C2.06836 8.06886 3.34158 6.79563 4.91211 6.79563H6.53046ZM7.10257 8.34677H4.91211C4.74236 8.34677 4.57428 8.3802 4.41745 8.44516C4.26062 8.51012 4.11812 8.60534 3.99809 8.72537C3.87806 8.8454 3.78285 8.98789 3.71789 9.14472C3.65293 9.30155 3.6195 9.46963 3.6195 9.63938V19.9803C3.6195 20.15 3.65293 20.3181 3.71789 20.475C3.78285 20.6318 3.87806 20.7743 3.99809 20.8943C4.11812 21.0143 4.26062 21.1095 4.41745 21.1745C4.57428 21.2395 4.74236 21.2729 4.91211 21.2729H19.9064C20.0762 21.2729 20.2443 21.2395 20.4011 21.1745C20.5579 21.1095 20.7004 21.0143 20.8204 20.8943C20.9405 20.7743 21.0357 20.6318 21.1007 20.475C21.1656 20.3181 21.199 20.15 21.199 19.9803V9.63938C21.199 9.46963 21.1656 9.30155 21.1007 9.14472C21.0357 8.98789 20.9405 8.8454 20.8204 8.72537C20.7004 8.60534 20.5579 8.51012 20.4011 8.44516C20.2443 8.3802 20.0762 8.34677 19.9064 8.34677H17.716C17.5503 8.34676 17.389 8.29369 17.2556 8.19535C17.1223 8.097 17.024 7.95854 16.975 7.80025L16.2414 5.42675C16.2251 5.37399 16.1923 5.32783 16.1479 5.29503C16.1034 5.26223 16.0497 5.24452 15.9945 5.2445H8.82408C8.76885 5.24452 8.71509 5.26223 8.67066 5.29503C8.62624 5.32783 8.59348 5.37399 8.57719 5.42675L7.8435 7.79999C7.79461 7.95833 7.6963 8.09685 7.56296 8.19524C7.42963 8.29364 7.26828 8.34674 7.10257 8.34677ZM12.4093 18.1706C10.2677 18.1706 8.53143 16.4344 8.53143 14.2928C8.53143 12.1512 10.2677 10.4149 12.4093 10.4149C14.5509 10.4149 16.2871 12.1512 16.2871 14.2928C16.2871 16.4344 14.5509 18.1706 12.4093 18.1706ZM12.4093 16.6195C13.0264 16.6195 13.6182 16.3744 14.0545 15.938C14.4908 15.5017 14.736 14.9099 14.736 14.2928C14.736 13.6757 14.4908 13.0839 14.0545 12.6476C13.6182 12.2112 13.0264 11.9661 12.4093 11.9661C11.7922 11.9661 11.2004 12.2112 10.764 12.6476C10.3277 13.0839 10.0826 13.6757 10.0826 14.2928C10.0826 14.9099 10.3277 15.5017 10.764 15.938C11.2004 16.3744 11.7922 16.6195 12.4093 16.6195Z" fill="black" />
</svg>